<svg version="1.1" id="Layer_1" xmlns="http://www.w3.org/2000/svg" xmlns:xlink="http://www.w3.org/1999/xlink" x="0px" y="0px"
	 width="100%" viewBox="0 0 225 225" enable-background="new 0 0 225 225" xml:space="preserve">
<path fill="#FBFBFB" opacity="1.000000" stroke="none" 
	d="
M126.000000,226.000000 
	C85.166672,226.000000 44.833214,225.958939 4.500267,226.083817 
	C1.516876,226.093048 0.913466,225.482285 0.917787,222.499893 
	C1.023051,149.833374 1.023047,77.166656 0.917792,4.500140 
	C0.913472,1.517827 1.517668,0.913462 4.500098,0.917783 
	C77.166611,1.023050 149.833344,1.023045 222.499847,0.917795 
	C225.482132,0.913475 226.086548,1.517623 226.082230,4.500085 
	C225.976959,77.166595 225.976959,149.833328 226.082199,222.499832 
	C226.086517,225.482071 225.483948,226.097382 222.499680,226.084686 
	C190.500244,225.948639 158.500015,226.000000 126.000000,226.000000 
z"/>
<path fill="#010101" opacity="1.000000" stroke="none" 
	d="
M167.374756,174.332703 
	C161.983414,183.514694 156.829544,192.413910 151.645981,201.295807 
	C150.852737,202.655029 150.380280,204.686386 148.108917,203.951691 
	C146.030182,203.279297 147.045502,201.397110 147.043549,200.115677 
	C146.982651,159.990570 146.998993,119.865349 146.978867,79.740158 
	C146.977768,77.532562 146.579697,75.705116 150.080505,75.728851 
	C174.221115,75.892540 198.363312,75.818733 222.504990,75.837975 
	C222.943558,75.838326 223.381943,76.044594 224.332352,76.283440 
	C205.333466,109.023659 186.468002,141.533981 167.374756,174.332703 
z"/>
<path fill="#000000" opacity="1.000000" stroke="none" 
	d="
M51.170761,75.169724 
	C61.186985,74.788033 70.850876,74.835022 80.511513,74.679962 
	C83.105225,74.638336 84.292961,74.990852 84.284744,78.087601 
	C84.175972,119.074951 84.189812,160.062729 84.264709,201.050232 
	C84.269440,203.637802 83.604675,204.477280 80.937721,204.429977 
	C71.943260,204.270493 62.942238,204.263504 53.948132,204.432541 
	C51.194141,204.484314 50.676174,203.488754 50.681976,200.981354 
	C50.778713,159.161880 50.788239,117.342201 51.170761,75.169724 
z"/>
<path fill="#000000" opacity="1.000000" stroke="none" 
	d="
M98.730774,192.995605 
	C98.730743,154.851730 98.779808,117.208168 98.653259,79.565201 
	C98.640869,75.879593 99.250481,74.371651 103.409363,74.558914 
	C111.720695,74.933144 120.062035,74.752396 128.388123,74.620369 
	C130.932251,74.580032 132.204483,74.834290 132.196106,77.976326 
	C132.086899,118.950699 132.089752,159.925552 132.193085,200.899963 
	C132.200699,203.917847 131.142395,204.396866 128.474731,204.347107 
	C119.982948,204.188721 111.479958,204.097046 102.994629,204.379654 
	C99.440018,204.498047 98.228569,203.483612 98.679817,199.985580 
	C98.954582,197.855682 98.730682,195.661438 98.730774,192.995605 
z"/>
<path fill="#000000" opacity="1.000000" stroke="none" 
	d="
M2.629810,84.001175 
	C2.629847,74.711502 2.629847,74.711449 11.404403,74.711502 
	C18.231901,74.711540 25.063791,74.854515 31.884834,74.644714 
	C34.796589,74.555153 35.431015,75.557213 35.425598,78.300369 
	C35.344994,119.098686 35.342289,159.897263 35.430107,200.695541 
	C35.436169,203.512177 34.670868,204.363907 31.841362,204.304214 
	C23.518850,204.128647 15.183901,204.052155 6.867001,204.330597 
	C3.290848,204.450317 2.538183,203.330399 2.549502,199.903397 
	C2.676553,161.436722 2.629823,122.969482 2.629810,84.001175 
z"/>
<path fill="#050505" opacity="1.000000" stroke="none" 
	d="
M132.096848,30.100952 
	C132.096817,39.070389 131.991974,47.554996 132.156555,56.034382 
	C132.210403,58.808460 131.497482,59.758614 128.582611,59.697563 
	C119.604996,59.509521 110.619804,59.551216 101.640152,59.681957 
	C99.261719,59.716579 98.444717,59.047489 98.471191,56.622566 
	C98.578308,46.810566 98.580574,36.995956 98.468307,27.184067 
	C98.440933,24.791698 99.172417,24.059292 101.581429,24.093670 
	C110.727440,24.224178 119.879662,24.291874 129.023026,24.088943 
	C134.068375,23.976965 131.423782,27.594248 132.096848,30.100952 
z"/>
<path fill="#010101" opacity="1.000000" stroke="none" 
	d="
M84.326378,58.000908 
	C75.929382,60.090698 67.494713,58.917789 59.098423,59.138874 
	C50.586361,59.363010 50.581715,59.188354 50.581783,50.702587 
	C50.581841,43.062458 50.746639,35.417084 50.503487,27.784704 
	C50.402039,24.600241 51.458759,23.947227 54.435822,24.015394 
	C63.233967,24.216839 72.042053,24.202402 80.841080,24.021118 
	C83.673912,23.962753 84.490501,24.755598 84.440346,27.605156 
	C84.264977,37.567490 84.367310,47.534710 84.326378,58.000908 
z"/>
<path fill="#020202" opacity="1.000000" stroke="none" 
	d="
M155.063568,24.179392 
	C162.535965,24.179430 169.521957,24.314249 176.498383,24.114515 
	C179.370743,24.032282 180.113144,24.944799 180.062897,27.746107 
	C179.893005,37.218826 179.930069,46.697315 180.046906,56.171638 
	C180.075241,58.470055 179.565582,59.344704 177.069412,59.305271 
	C167.928406,59.160858 158.782837,59.178596 149.641113,59.297874 
	C147.406372,59.327030 146.847015,58.582485 146.867447,56.459053 
	C146.961914,46.651714 146.992096,36.841789 146.853394,27.035503 
	C146.816803,24.448877 147.873077,23.935556 150.087509,24.151831 
	C151.569550,24.296572 153.077164,24.179377 155.063568,24.179392 
z"/>
</svg>